<svg viewBox="0 0 379.777 379.777" xmlns="http://www.w3.org/2000/svg"><path d="M366.31 97.749c-.129-1.144-1.544-1.144-2.389-1.144-6.758 0-37.499 4.942-62.82 13.081-1.638.527-2.923.783-3.928.783-1.961 0-2.722-.928-4.254-3.029-1.848-2.533-4.379-6.001-11.174-8.914-2.804-1.202-6.057-1.812-9.667-1.812-14.221 0-32.199 9.312-42.749 22.142-.066.08-.103.096-.107.096-.913 0-4.089-3.564-9.577-17.062-4.013-9.87-8.136-22.368-10.504-31.842-3.553-14.212-13.878-34.195-20.71-47.417-2.915-5.642-5.218-10.098-5.797-11.836-.447-1.339-1.15-2.019-2.091-2.019-.604 0-1.184.3-1.773.917-6.658 6.983-20.269 65.253-19.417 83.132.699 14.682 12.291 24.61 17.861 29.381a79.096 79.096 0 011.911 1.67c-2.964-1.06-9.171-6.137-17.406-12.873-11.881-9.718-29.836-24.403-54.152-40.453-34.064-22.484-55.885-44.77-68.922-58.084C29.96 3.599 26.334 0 23.787 0c-.605 0-1.707.227-2.278 1.75-2.924 7.798.754 88.419 37.074 132 20.279 24.335 46.136 36.829 63.246 45.097 9.859 4.764 17.647 8.527 18.851 12.058.273.803.203 1.573-.223 2.425-1.619 3.238-4.439 7.193-8.011 12.202-9.829 13.783-24.682 34.613-35.555 69.335-4.886 15.601-55.963 70.253-69.247 83.537-.648.648-15.847 15.917-14.06 20.229.142.344.613 1.143 1.908 1.143 3.176 0 11.554-5.442 24.902-16.195 17.47-14.073 29.399-25.848 38.11-34.452 8.477-8.374 13.784-13.596 17.427-14.161-.333 1.784-1.385 6.367-4.576 17.926-.077.279-.238.938.127 1.418l.355.576h.498c.773 0 1.172-.618 4.53-4.786 10.244-12.714 41.417-51.561 84.722-60.067 25.376-4.985 56.886-28.519 68.008-63.854 16.822-53.439 30.902-87.056 105.18-104.08 11.727-2.689 11.653-3.351 11.539-4.353z" fill="#122932"/></svg>